<svg data-v-fde0c5aa="" xmlns="http://www.w3.org/2000/svg" viewBox="0 0 300 300" class="iconLeft"><!----><defs data-v-fde0c5aa=""><!----></defs><rect data-v-fde0c5aa="" fill="#00242B" x="0" y="0" width="300px" height="300px" class="logo-background-square"></rect><defs data-v-fde0c5aa=""><!----></defs><g data-v-fde0c5aa="" id="f32bb4aa-c80e-4122-a0ab-223d1c592309" fill="#7DE38D" transform="matrix(2.711653380898438,0,0,2.711653380898438,108.06606227723147,131.41161723442403)"><path d="M-0.70 13.24C-0.42 13.37 0.15 13.44 0.49 13.44C2.06 13.44 3.12 12.38 3.42 10.89L4.58 4.89L6.13 4.89L6.44 3.22L4.89 3.22L4.94 2.90C5.08 2.28 5.42 2.06 5.88 2.06C6.10 2.06 6.45 2.11 6.64 2.20L7.20 0.49C6.99 0.38 6.24 0.27 5.64 0.27C4.10 0.27 3.18 1.39 2.88 2.93L2.83 3.22L1.74 3.22L1.43 4.89L2.52 4.89L1.50 10.12C1.36 10.86 1.15 11.59 0.34 11.59C0.20 11.59 0.10 11.58-0.11 11.51ZM10.15 2.32L10.53 0.42L8.43 0.42L8.05 2.32ZM8.60 10.50L9.98 3.22L7.88 3.22L6.50 10.50ZM15.62 10.50L16.65 8.75L12.61 8.75L16.87 4.97L17.21 3.22L11.48 3.22L11.14 4.97L14.34 4.97L10.15 8.75L9.83 10.50ZM22.86 10.50L23.88 8.75L19.85 8.75L24.11 4.97L24.44 3.22L18.72 3.22L18.38 4.97L21.57 4.97L17.39 8.75L17.07 10.50ZM26.52 0.42L24.58 10.50L26.54 10.50L26.70 9.65C26.98 10.35 27.57 10.71 28.39 10.71C30.13 10.71 31.78 9.41 32.27 6.86C32.76 4.31 31.54 3.01 29.81 3.01C29.22 3.01 28.50 3.19 27.96 3.85L28.62 0.42ZM27.22 6.86C27.50 5.43 28.20 4.76 29.09 4.76C29.99 4.76 30.45 5.43 30.17 6.86C29.90 8.29 29.12 8.96 28.29 8.96C27.47 8.96 26.95 8.29 27.22 6.86ZM38.60 3.22L37.84 7.18C37.60 8.36 36.89 8.95 36.16 8.95C35.35 8.95 35.14 8.47 35.31 7.63L36.15 3.22L34.05 3.22L33.19 7.69C32.86 9.42 33.24 10.71 35.25 10.71C36.12 10.71 36.82 10.35 37.53 9.45L37.34 10.50L39.31 10.50L40.70 3.22ZM47.25 0.42L46.59 3.85C46.30 3.19 45.64 3.01 45.05 3.01C43.32 3.01 41.59 4.31 41.10 6.86C40.61 9.41 41.76 10.71 43.50 10.71C44.32 10.71 45.05 10.35 45.61 9.65L45.46 10.50L47.42 10.50L49.35 0.42ZM46.16 6.86C45.89 8.29 45.09 8.96 44.27 8.96C43.44 8.96 42.94 8.29 43.20 6.86C43.48 5.43 44.20 4.76 45.09 4.76C45.99 4.76 46.44 5.43 46.16 6.86ZM54.45 10.50L55.47 8.75L51.44 8.75L55.69 4.97L56.03 3.22L50.30 3.22L49.97 4.97L53.16 4.97L48.97 8.75L48.65 10.50Z"></path></g><defs data-v-fde0c5aa=""><!----></defs><g data-v-fde0c5aa="" id="a7e5fbb8-5513-4bac-bf5c-d2d3bd91b16e" stroke="none" fill="#7DE38D" transform="matrix(0.052512340423546196,0,0,0.052512340423546196,39.96128320652885,123.01171949429889)"><path d="M782.066 787.692l-61.89-90.022c50.637-39.384 95.648-84.395 129.406-140.659 78.77-135.033 78.77-309.45-5.626-444.484-163.165-5.626-315.077 78.77-393.846 219.429l-95.648-56.264C461.362 95.648 663.912-11.253 872.088 5.626h28.132l16.879 22.506c118.154 174.417 129.406 405.099 22.505 585.143-39.384 67.516-95.648 129.406-157.538 174.417z"></path><path d="M551.385 1024c-146.286 0-286.945-56.264-388.22-157.538C11.253 714.549-39.385 489.495 33.758 292.572l11.253-28.132 28.132-11.253c196.923-73.143 421.978-22.506 573.89 129.406C793.319 528.88 843.956 753.934 776.44 956.483l-11.253 28.132-33.758 5.627C675.165 1012.747 613.275 1024 551.385 1024zM129.407 354.462c-45.011 151.912 0 315.076 112.527 427.604s275.692 151.912 427.604 112.527c45.011-151.912 0-315.077-112.527-427.604S281.319 309.451 129.407 354.462z"></path></g><!----></svg>